<svg width="29" height="29" viewBox="0 0 29 29" fill="none" xmlns="http://www.w3.org/2000/svg">
<g opacity="0.6">
<circle cx="4.83345" cy="4.83345" r="4.83345" transform="matrix(-1 0 0 1 19.2939 3.62598)" stroke="#2F2F2F" stroke-width="1.81254"/>
<path d="M6.00195 20.4635C6.00195 19.4239 6.6555 18.4965 7.63456 18.1468V18.1468C12.0487 16.5704 16.8723 16.5704 21.2864 18.1468V18.1468C22.2655 18.4965 22.919 19.4239 22.919 20.4635V22.0531C22.919 23.488 21.6482 24.5902 20.2278 24.3872L19.0745 24.2225C16.014 23.7853 12.907 23.7853 9.84651 24.2225L8.69323 24.3872C7.27279 24.5902 6.00195 23.488 6.00195 22.0531V20.4635Z" stroke="#2F2F2F" stroke-width="1.81254"/>
<circle cx="4.83345" cy="4.83345" r="4.83345" transform="matrix(-1 0 0 1 19.292 3.62598)" stroke="#2F2F2F" stroke-width="1.81254"/>
<path d="M6 20.4635C6 19.4239 6.65355 18.4965 7.63261 18.1468V18.1468C12.0467 16.5704 16.8704 16.5704 21.2845 18.1468V18.1468C22.2635 18.4965 22.9171 19.4239 22.9171 20.4635V22.0531C22.9171 23.488 21.6462 24.5902 20.2258 24.3872L19.0725 24.2225C16.0121 23.7853 12.905 23.7853 9.84456 24.2225L8.69128 24.3872C7.27084 24.5902 6 23.488 6 22.0531V20.4635Z" stroke="#2F2F2F" stroke-width="1.81254"/>
</g>
</svg>
