<svg width="25" height="23" viewBox="0 0 25 23" fill="none" xmlns="http://www.w3.org/2000/svg">
<circle cx="4.83345" cy="4.83345" r="4.83345" transform="matrix(-1 0 0 1 14.9209 1.17627)" stroke="white" stroke-width="1.81254"/>
<path d="M1.62891 18.0138C1.62891 16.9742 2.28245 16.0468 3.26152 15.6971V15.6971C7.67561 14.1206 12.4993 14.1206 16.9134 15.6971V15.6971C17.8924 16.0468 18.546 16.9742 18.546 18.0138V19.6034C18.546 21.0383 17.2752 22.1405 15.8547 21.9375L14.7014 21.7728C11.641 21.3356 8.53392 21.3356 5.47346 21.7728L4.32018 21.9375C2.89975 22.1405 1.62891 21.0383 1.62891 19.6034V18.0138Z" stroke="white" stroke-width="1.81254"/>
<path d="M18.5455 10.8433H23.3789" stroke="white" stroke-width="1.81254" stroke-linecap="round" stroke-linejoin="round"/>
<path d="M20.9629 8.42582L20.9629 13.2593" stroke="white" stroke-width="1.81254" stroke-linecap="round" stroke-linejoin="round"/>
<circle cx="4.83345" cy="4.83345" r="4.83345" transform="matrix(-1 0 0 1 14.9189 1.17578)" stroke="white" stroke-width="1.81254"/>
<path d="M1.62695 18.0133C1.62695 16.9737 2.2805 16.0463 3.25956 15.6966V15.6966C7.67365 14.1202 12.4973 14.1202 16.9114 15.6966V15.6966C17.8905 16.0463 18.544 16.9737 18.544 18.0133V19.6029C18.544 21.0378 17.2732 22.14 15.8528 21.937L14.6995 21.7723C11.639 21.3351 8.53196 21.3351 5.47151 21.7723L4.31823 21.937C2.89779 22.14 1.62695 21.0378 1.62695 19.6029V18.0133Z" stroke="white" stroke-width="1.81254"/>
</svg>
